<?xml version="1.0" encoding="iso-8859-1"?>
<!-- Generator: Adobe Illustrator 19.0.0, SVG Export Plug-In . SVG Version: 6.00 Build 0)  -->
<svg version="1.1" id="Layer_1" xmlns="http://www.w3.org/2000/svg" xmlns:xlink="http://www.w3.org/1999/xlink" x="0px" y="0px"
	 viewBox="0 0 512 512" style="enable-background:new 0 0 512 512;" xml:space="preserve">
<g>
	<g>
		<path d="M477.669,35.004c-23.697,12.926-52.338,12.926-76.034,0L355.234,9.694c-23.697-12.926-52.338-12.926-76.034,0L256,22.35
			L232.8,9.694c-23.697-12.926-52.338-12.926-76.034,0l-46.399,25.309c-23.697,12.926-52.339,12.926-76.035,0
			c-10.454-5.702-23.2,1.864-23.2,13.773v6.964v45.178c0,5.107,0.096,13.45,0.489,18.542c0.237,3.069,0.624,6.12,0.624,9.149v0.002
			c10.017,79.526,65.827,144.754,140.429,167.554c31.825,9.726,66.57,2.795,93.192-17.172c5.936-4.452,14.158-4.452,20.094,0
			c26.622,19.967,61.279,26.898,93.103,17.172c44.872-13.714,82.817-42.782,108.417-81.073v280.21
			c0,9.22,7.475,16.696,16.696,16.696s16.696-7.475,16.696-16.696V104.526V61.217v-5.476v-6.964
			C500.869,36.868,488.124,29.302,477.669,35.004z M210.673,205.206c-12.684,4.473-25.315,6.696-37.484,6.696
			c-17.223,0-33.527-4.451-47.789-13.261c-24.734-15.278-40.614-41.679-44.723-74.342c-0.984-7.82,3.636-15.266,11.087-17.853
			c31.169-10.842,61.832-8.359,86.337,6.979c24.255,15.185,39.739,41.489,43.603,74.076
			C222.625,195.255,218.043,202.614,210.673,205.206z M431.321,124.299c-4.108,32.669-19.989,59.07-44.706,74.342
			c-14.271,8.81-30.582,13.261-47.804,13.261c-12.169,0-24.799-2.223-37.49-6.696c-7.364-2.598-11.945-9.951-11.027-17.706
			c3.859-32.581,19.348-58.886,43.609-74.071c24.484-15.331,55.147-17.826,86.331-6.983
			C427.685,109.032,432.304,116.477,431.321,124.299z"/>
	</g>
</g>
</svg>
